<?xml version="1.0" encoding="utf-8"?>
<!-- Generator: Adobe Illustrator 18.1.0, SVG Export Plug-In . SVG Version: 6.00 Build 0)  -->
<svg version="1.1" id="Layer_1" xmlns="http://www.w3.org/2000/svg" xmlns:xlink="http://www.w3.org/1999/xlink" x="0px" y="0px"
	 viewBox="0 0 317.3 30.5" enable-background="new 0 0 317.3 30.5" xml:space="preserve">
<g>
	<g>
		<path fill="#0082cb" d="M16,5.7v2.9H7.7V12h7.6v2.7H7.7v3.8h8.4v2.9H4.3V5.7H16z"/>
		<path fill="#0082cb" d="M30.7,5.7l6.5,10.5h0V5.7h3.2v15.6H37l-6.5-10.5h0v10.5h-3.2V5.7H30.7z"/>
		<path fill="#0082cb" d="M64,5.7v2.9h-8.3V12h7.6v2.7h-7.6v3.8h8.4v2.9H52.3V5.7H64z"/>
		<path fill="#0082cb" d="M83.7,5.7c0.7,0,1.3,0.1,1.9,0.3c0.6,0.2,1,0.5,1.4,0.9c0.4,0.4,0.7,0.9,0.9,1.4c0.2,0.5,0.3,1.1,0.3,1.7
			c0,0.9-0.2,1.7-0.6,2.4c-0.4,0.7-1,1.2-1.9,1.5v0c0.4,0.1,0.8,0.3,1.1,0.5c0.3,0.2,0.5,0.5,0.7,0.9s0.3,0.7,0.4,1.1
			c0.1,0.4,0.1,0.8,0.2,1.2c0,0.2,0,0.5,0,0.9c0,0.3,0,0.7,0.1,1c0,0.4,0.1,0.7,0.2,1c0.1,0.3,0.2,0.6,0.4,0.8h-3.4
			c-0.2-0.5-0.3-1.1-0.4-1.8c0-0.7-0.1-1.3-0.2-2c-0.1-0.8-0.4-1.4-0.7-1.8c-0.4-0.4-1-0.6-1.9-0.6h-3.4v6.1h-3.4V5.7H83.7z
			 M82.4,12.8c0.8,0,1.4-0.2,1.8-0.5c0.4-0.4,0.6-0.9,0.6-1.7c0-0.8-0.2-1.3-0.6-1.7c-0.4-0.3-1-0.5-1.8-0.5h-3.8v4.4H82.4z"/>
		<path fill="#0082cb" d="M109.1,21.2c-0.7,0.3-1.5,0.5-2.3,0.5c-1.2,0-2.3-0.2-3.2-0.6c-1-0.4-1.8-1-2.4-1.7
			c-0.7-0.7-1.2-1.6-1.5-2.6c-0.4-1-0.5-2-0.5-3.2c0-1.2,0.2-2.3,0.5-3.3c0.4-1,0.9-1.9,1.5-2.6c0.7-0.7,1.5-1.3,2.4-1.8
			c1-0.4,2-0.6,3.2-0.6c0.8,0,1.6,0.1,2.3,0.4c0.8,0.2,1.4,0.6,2,1.1c0.6,0.5,1.1,1,1.5,1.7c0.4,0.7,0.6,1.5,0.7,2.4h-3.3
			c-0.2-0.9-0.6-1.5-1.2-2c-0.6-0.4-1.3-0.7-2.1-0.7c-0.8,0-1.4,0.2-2,0.4c-0.5,0.3-1,0.7-1.3,1.2c-0.3,0.5-0.6,1.1-0.7,1.7
			c-0.2,0.6-0.2,1.3-0.2,2c0,0.7,0.1,1.3,0.2,1.9c0.2,0.6,0.4,1.2,0.7,1.7c0.3,0.5,0.8,0.9,1.3,1.2c0.5,0.3,1.2,0.4,2,0.4
			c1.1,0,2-0.3,2.6-0.9c0.6-0.6,1-1.4,1.1-2.5h-3.5v-2.6h6.6v8.5h-2.2l-0.4-1.8C110.5,20.4,109.8,20.9,109.1,21.2z"/>
		<path fill="#0082cb" d="M123.5,5.7h3.9l3.7,6.2l3.6-6.2h3.8l-5.8,9.6v6h-3.4v-6.1L123.5,5.7z"/>
		<path fill="#0082cb" d="M175.1,5.7v2.9h-8.3V12h7.6v2.7h-7.6v3.8h8.4v2.9h-11.9V5.7H175.1z"/>
		<path fill="#0082cb" d="M189.8,21.4l-5.1-15.6h3.5l3.5,11h0l3.5-11h3.5l-5.2,15.6H189.8z"/>
		<path fill="#0082cb" d="M208.8,10.4c0.4-1,0.9-1.9,1.5-2.6c0.7-0.7,1.5-1.3,2.4-1.8c1-0.4,2-0.6,3.2-0.6c1.2,0,2.3,0.2,3.2,0.6
			c0.9,0.4,1.8,1,2.4,1.8c0.7,0.7,1.2,1.6,1.5,2.6s0.5,2.1,0.5,3.3c0,1.1-0.2,2.2-0.5,3.2s-0.9,1.8-1.5,2.6
			c-0.7,0.7-1.5,1.3-2.4,1.7c-0.9,0.4-2,0.6-3.2,0.6c-1.2,0-2.3-0.2-3.2-0.6c-1-0.4-1.8-1-2.4-1.7c-0.7-0.7-1.2-1.6-1.5-2.6
			c-0.4-1-0.5-2-0.5-3.2C208.3,12.4,208.5,11.4,208.8,10.4z M212,15.5c0.2,0.6,0.4,1.2,0.7,1.7c0.3,0.5,0.8,0.9,1.3,1.2
			c0.5,0.3,1.2,0.4,2,0.4c0.8,0,1.4-0.2,2-0.4c0.5-0.3,1-0.7,1.3-1.2c0.3-0.5,0.6-1.1,0.7-1.7c0.2-0.6,0.2-1.3,0.2-1.9
			c0-0.7-0.1-1.4-0.2-2c-0.2-0.6-0.4-1.2-0.7-1.7c-0.3-0.5-0.8-0.9-1.3-1.2c-0.5-0.3-1.2-0.4-2-0.4c-0.8,0-1.4,0.2-2,0.4
			c-0.5,0.3-1,0.7-1.3,1.2c-0.3,0.5-0.6,1.1-0.7,1.7c-0.2,0.6-0.2,1.3-0.2,2C211.7,14.3,211.8,14.9,212,15.5z"/>
		<path fill="#0082cb" d="M238.2,5.7v12.8h7.6v2.9h-11.1V5.7H238.2z"/>
		<path fill="#0082cb" d="M257.9,21.4l-5.1-15.6h3.5l3.5,11h0l3.5-11h3.5l-5.2,15.6H257.9z"/>
		<path fill="#0082cb" d="M288.8,5.7v2.9h-8.3V12h7.6v2.7h-7.6v3.8h8.4v2.9h-11.9V5.7H288.8z"/>
		<path fill="#0082cb" d="M306.8,5.7c1,0,1.9,0.2,2.8,0.5c0.9,0.3,1.6,0.8,2.3,1.4c0.6,0.6,1.1,1.4,1.5,2.4c0.4,1,0.5,2.1,0.5,3.4
			c0,1.1-0.1,2.2-0.4,3.2c-0.3,1-0.7,1.8-1.3,2.5c-0.6,0.7-1.3,1.3-2.2,1.7c-0.9,0.4-1.9,0.6-3.1,0.6h-6.7V5.7H306.8z M306.6,18.5
			c0.5,0,1-0.1,1.4-0.2c0.5-0.2,0.9-0.4,1.2-0.8c0.4-0.4,0.7-0.9,0.9-1.5c0.2-0.6,0.3-1.3,0.3-2.2c0-0.8-0.1-1.5-0.2-2.1
			c-0.2-0.6-0.4-1.2-0.8-1.6c-0.4-0.5-0.8-0.8-1.4-1c-0.6-0.2-1.3-0.4-2.1-0.4h-2.5v9.9H306.6z"/>
	</g>
	<g>
		<path fill="#FF" d="M310.7,24.3v0.4h-0.8v2.1h-0.5v-2.1h-0.8v-0.4H310.7z M313.4,26.9l-0.1-1.5c0-0.2,0-0.4,0-0.7h0
			c-0.1,0.2-0.1,0.5-0.2,0.8l-0.5,1.4h-0.5l-0.5-1.4c0-0.2-0.1-0.5-0.2-0.7h0c0,0.2,0,0.5,0,0.7l-0.1,1.5h-0.5l0.2-2.5h0.8l0.4,1.2
			c0.1,0.2,0.1,0.4,0.2,0.6h0c0.1-0.2,0.1-0.4,0.2-0.6l0.4-1.2h0.7l0.2,2.5H313.4z"/>
	</g>
</g>
</svg>
